<svg xmlns="http://www.w3.org/2000/svg" version="1.1" xmlns:xlink="http://www.w3.org/1999/xlink" xmlns:svgjs="http://svgjs.dev/svgjs" width="1440" height="560" preserveAspectRatio="none" viewBox="0 0 1440 560"><g mask="url(&quot;#SvgjsMask1166&quot;)" fill="none"><rect width="1440" height="560" x="0" y="0" fill="rgba(255, 255, 255, 1)"></rect><path d="M416.23 413.31 a95.67 95.67 0 1 0 191.34 0 a95.67 95.67 0 1 0 -191.34 0z" fill="rgba(66, 147, 108, 0.75)" class="triangle-float3"></path><path d="M150.13 380.73 a117.28 117.28 0 1 0 234.56 0 a117.28 117.28 0 1 0 -234.56 0z" fill="rgba(66, 147, 108, 0.75)" class="triangle-float3"></path><path d="M-60.78 263.91 a142.09 142.09 0 1 0 284.18 0 a142.09 142.09 0 1 0 -284.18 0z" fill="rgba(66, 147, 108, 0.75)" class="triangle-float3"></path><path d="M1162.84 438.49 a144.83 144.83 0 1 0 289.66 0 a144.83 144.83 0 1 0 -289.66 0z" fill="rgba(66, 147, 108, 0.75)" class="triangle-float3"></path><path d="M1125.45 318.13 a126.17 126.17 0 1 0 252.34 0 a126.17 126.17 0 1 0 -252.34 0z" fill="rgba(66, 147, 108, 0.75)" class="triangle-float2"></path><path d="M1054.82 120.68 a162.34 162.34 0 1 0 324.68 0 a162.34 162.34 0 1 0 -324.68 0z" fill="rgba(66, 147, 108, 0.75)" class="triangle-float2"></path><path d="M139.86 54.91 a114.55 114.55 0 1 0 229.1 0 a114.55 114.55 0 1 0 -229.1 0z" fill="rgba(66, 147, 108, 0.75)" class="triangle-float1"></path></g><defs><mask id="SvgjsMask1166"><rect width="1440" height="560" fill="#ffffff"></rect></mask><style>
                @keyframes float1 {
                    0%{transform: translate(0, 0)}
                    50%{transform: translate(-10px, 0)}
                    100%{transform: translate(0, 0)}
                }

                .triangle-float1 {
                    animation: float1 5s infinite;
                }

                @keyframes float2 {
                    0%{transform: translate(0, 0)}
                    50%{transform: translate(-5px, -5px)}
                    100%{transform: translate(0, 0)}
                }

                .triangle-float2 {
                    animation: float2 4s infinite;
                }

                @keyframes float3 {
                    0%{transform: translate(0, 0)}
                    50%{transform: translate(0, -10px)}
                    100%{transform: translate(0, 0)}
                }

                .triangle-float3 {
                    animation: float3 6s infinite;
                }
            </style></defs></svg>