<svg xmlns="http://www.w3.org/2000/svg" version="1.1" xmlns:xlink="http://www.w3.org/1999/xlink" xmlns:svgjs="http://svgjs.dev/svgjs" width="1440" height="560" preserveAspectRatio="none" viewBox="0 0 1440 560"><g mask="url(&quot;#SvgjsMask1121&quot;)" fill="none"><rect width="1440" height="560" x="0" y="0" fill="rgba(255, 255, 255, 1)"></rect><path d="M -594.6528978051764,210 C -522.65,225 -378.65,325.6 -234.6528978051764,285 C -90.65,244.4 -18.65,-34.6 125.3471021948236,7 C 269.35,48.6 341.35,464 485.3471021948236,493 C 629.35,522 701.35,152 845.3471021948236,152 C 989.35,152 1086.42,518.4 1205.3471021948235,493 C 1324.28,467.6 1393.07,118.6 1440,25" stroke="rgba(66, 147, 108, 0.32)" stroke-width="2"></path><path d="M -263.1536967957573,55 C -191.15,103.2 -47.15,278.4 96.84630320424272,296 C 240.85,313.6 312.85,104.2 456.8463032042427,143 C 600.85,181.8 672.85,516.8 816.8463032042428,490 C 960.85,463.2 1032.85,14.6 1176.8463032042428,9 C 1320.85,3.4 1484.22,460 1536.8463032042428,462 C 1589.48,464 1459.37,107.6 1440,19" stroke="rgba(66, 147, 108, 0.32)" stroke-width="2"></path><path d="M -297.3786844437935,340 C -225.38,304 -81.38,143 62.62131555620654,160 C 206.62,177 278.62,411.2 422.6213155562065,425 C 566.62,438.8 638.62,229.4 782.6213155562066,229 C 926.62,228.6 998.62,467.6 1142.6213155562066,423 C 1286.62,378.4 1443.15,29.6 1502.6213155562066,6 C 1562.1,-17.6 1452.52,245.2 1440,305" stroke="rgba(66, 147, 108, 0.32)" stroke-width="2"></path></g><defs><mask id="SvgjsMask1121"><rect width="1440" height="560" fill="#ffffff"></rect></mask></defs></svg>