<svg xmlns="http://www.w3.org/2000/svg" version="1.1" xmlns:xlink="http://www.w3.org/1999/xlink" xmlns:svgjs="http://svgjs.dev/svgjs" width="1440" height="560" preserveAspectRatio="none" viewBox="0 0 1440 560"><g mask="url(&quot;#SvgjsMask1141&quot;)" fill="none"><rect width="1440" height="560" x="0" y="0" fill="rgba(255, 255, 255, 1)"></rect><path d="M753.33 470.46 a116.26 116.26 0 1 0 232.52 0 a116.26 116.26 0 1 0 -232.52 0z" fill="rgba(66, 147, 108, 0.75)" class="triangle-float3"></path><path d="M20.58 132.44 a178.21 178.21 0 1 0 356.42 0 a178.21 178.21 0 1 0 -356.42 0z" fill="rgba(66, 147, 108, 0.75)" class="triangle-float1"></path><path d="M296.16 358.81 a98.06 98.06 0 1 0 196.12 0 a98.06 98.06 0 1 0 -196.12 0z" fill="rgba(66, 147, 108, 0.75)" class="triangle-float2"></path><path d="M261.49 24.03 a175.38 175.38 0 1 0 350.76 0 a175.38 175.38 0 1 0 -350.76 0z" fill="rgba(66, 147, 108, 0.75)" class="triangle-float3"></path><path d="M-42.06 367.06 a158.75 158.75 0 1 0 317.5 0 a158.75 158.75 0 1 0 -317.5 0z" fill="rgba(66, 147, 108, 0.75)" class="triangle-float3"></path><path d="M742.41 535.81 a147.97 147.97 0 1 0 295.94 0 a147.97 147.97 0 1 0 -295.94 0z" fill="rgba(66, 147, 108, 0.75)" class="triangle-float2"></path><path d="M1158.64 32.1 a109.33 109.33 0 1 0 218.66 0 a109.33 109.33 0 1 0 -218.66 0z" fill="rgba(66, 147, 108, 0.75)" class="triangle-float3"></path><path d="M966.47 554.62 a107.98 107.98 0 1 0 215.96 0 a107.98 107.98 0 1 0 -215.96 0z" fill="rgba(66, 147, 108, 0.75)" class="triangle-float1"></path></g><defs><mask id="SvgjsMask1141"><rect width="1440" height="560" fill="#ffffff"></rect></mask><style>
                @keyframes float1 {
                    0%{transform: translate(0, 0)}
                    50%{transform: translate(-10px, 0)}
                    100%{transform: translate(0, 0)}
                }

                .triangle-float1 {
                    animation: float1 5s infinite;
                }

                @keyframes float2 {
                    0%{transform: translate(0, 0)}
                    50%{transform: translate(-5px, -5px)}
                    100%{transform: translate(0, 0)}
                }

                .triangle-float2 {
                    animation: float2 4s infinite;
                }

                @keyframes float3 {
                    0%{transform: translate(0, 0)}
                    50%{transform: translate(0, -10px)}
                    100%{transform: translate(0, 0)}
                }

                .triangle-float3 {
                    animation: float3 6s infinite;
                }
            </style></defs></svg>