<svg xmlns="http://www.w3.org/2000/svg" version="1.1" xmlns:xlink="http://www.w3.org/1999/xlink" xmlns:svgjs="http://svgjs.dev/svgjs" width="1440" height="560" preserveAspectRatio="none" viewBox="0 0 1440 560"><g mask="url(&quot;#SvgjsMask1020&quot;)" fill="none"><rect width="1440" height="560" x="0" y="0" fill="rgba(255, 255, 255, 1)"></rect><path d="M553.97-97C412.97-43.58 392.13 372.93 188.38 382.67-15.37 392.41-81.21 266.51-177.21 265.07" stroke="rgba(66, 147, 108, 1)" stroke-width="2"></path><path d="M1212.99-48.67C1096.76-46.76 993.22 98.03 771.78 98.1 550.35 98.17 551.18 28.1 330.58 28.1 109.97 28.1 1.05 97.88-110.63 98.1" stroke="rgba(66, 147, 108, 1)" stroke-width="2"></path><path d="M951.9-69.76C821.63-35.29 863.66 322.93 583.37 323.58 303.09 324.23 37.72 118.34-153.68 116.38" stroke="rgba(66, 147, 108, 1)" stroke-width="2"></path><path d="M1042.73-12.62C890.23-3.45 795.86 270.06 505.49 278.6 215.12 287.14 107.77 428.37-31.75 429.8" stroke="rgba(66, 147, 108, 1)" stroke-width="2"></path><path d="M553.63-43.29C437.16 19.94 502.19 403.95 279.93 410.69 57.66 417.43-127.79 299.26-267.48 298.69" stroke="rgba(66, 147, 108, 1)" stroke-width="2"></path></g><defs><mask id="SvgjsMask1020"><rect width="1440" height="560" fill="#ffffff"></rect></mask></defs></svg>